<?xml version="1.0" encoding="utf-8"?>
<!-- Svg Vector Icons : http://www.onlinewebfonts.com/icon -->
<!DOCTYPE svg PUBLIC "-//W3C//DTD SVG 1.1//EN" "http://www.w3.org/Graphics/SVG/1.1/DTD/svg11.dtd">
<svg version="1.1" xmlns="http://www.w3.org/2000/svg" xmlns:xlink="http://www.w3.org/1999/xlink" x="0px" y="0px" viewBox="0 0 1000 1000" enable-background="new 0 0 1000 1000" xml:space="preserve">
<metadata> Svg Vector Icons : http://www.onlinewebfonts.com/icon </metadata>
<g><path d="M387.6,877.6c0,62.1,50.3,112.4,112.4,112.4c62.1,0,112.4-50.3,112.4-112.4c0-62.1-50.3-112.4-112.4-112.4C437.9,765.2,387.6,815.5,387.6,877.6L387.6,877.6L387.6,877.6z"/><path d="M387.6,500c0,62.1,50.3,112.4,112.4,112.4c62.1,0,112.4-50.3,112.4-112.4c0-62.1-50.3-112.4-112.4-112.4C437.9,387.6,387.6,437.9,387.6,500L387.6,500z"/><path d="M387.6,122.4c0,62.1,50.3,112.4,112.4,112.4c62.1,0,112.4-50.3,112.4-112.4S562.1,10,500,10C437.9,10,387.6,60.3,387.6,122.4L387.6,122.4z"/></g>
</svg>